<svg width="144" height="121" viewBox="0 0 144 121" fill="none" xmlns="http://www.w3.org/2000/svg">
<path d="M24.8859 87.1488C24.1611 90.2698 23.1946 93.1508 22.4698 96.2718C25.6107 95.3115 28.7517 94.5913 31.8926 94.1111C32.6175 90.9901 33.5839 88.1091 34.5503 85.2282C31.1678 85.9484 28.0268 86.6686 24.8859 87.1488ZM103.893 49.6964L95.9195 41.7738C93.0201 42.254 90.3624 42.7341 87.7047 43.4544L100.268 55.9385C98.3356 59.0595 95.9195 61.9405 93.5034 64.3413L75.6242 46.5754C73.2081 47.2956 70.7919 48.256 68.3758 49.2163L88.1879 68.9028C86.7383 70.1032 85.2886 71.0635 83.5973 71.7837C81.906 72.744 80.2148 73.4643 78.5235 74.1845L58.4698 54.2579C56.7785 55.4583 55.0872 56.8988 53.6376 58.3393C53.396 58.5794 53.396 58.5794 53.1544 58.8194L71.2752 76.8254C67.4094 78.0258 63.5436 79.2262 59.4362 80.1865L46.3893 67.2222C45.1812 69.1429 43.9732 71.3036 42.7651 73.7044L51.2215 82.1071C47.1141 82.8274 42.7651 83.5476 38.4161 84.5079C37.4497 87.3889 36.4832 90.2698 35.7584 93.3909C54.8456 89.7897 74.4161 87.869 90.604 78.9861C104.859 71.0635 112.832 55.6984 118.148 37.6925C114.765 38.4127 111.383 38.8929 108.242 39.6131C106.792 42.9742 105.342 46.3353 103.893 49.6964ZM0 95.0714L7.00671 102.034C7.97315 101.554 9.18121 101.073 10.1477 100.593L16.4295 106.835C16.9128 104.194 17.6376 101.313 18.1208 98.6726L17.396 97.9524C17.6376 97.9524 18.1208 97.7123 18.604 97.7123C19.3289 94.5913 20.0537 91.2302 20.7785 88.1091C13.5302 89.7897 6.52349 91.9504 0 95.0714ZM109.45 35.5317C112.832 35.0516 115.973 34.3313 119.114 33.6111C119.839 30.4901 120.805 27.6091 121.289 24.4881C118.148 25.4484 115.007 26.1687 111.866 26.6488C111.383 29.7698 110.416 32.6508 109.45 35.5317ZM113.315 22.5675C116.456 21.8472 119.597 21.127 122.497 20.1667C122.497 19.9266 122.497 19.6865 122.738 19.4464L123.221 20.1667C125.638 19.4464 128.295 18.4861 130.711 17.5258L124.43 11.2837C124.671 9.84325 124.913 8.40278 125.396 6.9623L118.148 0C116.698 7.68254 115.248 15.3651 113.315 22.5675Z" fill="white"/>
<path d="M43.9727 48.9763C29.2345 63.6211 23.6774 88.8294 18.8452 113.798C21.2613 116.198 23.4358 118.359 25.8519 120.76C30.6841 95.7917 36.2412 70.5834 50.9794 55.9386C53.8788 53.0576 56.7781 50.6568 60.4023 48.7362C84.8049 35.2917 118.389 37.9326 144 25.6886C141.583 23.2878 139.409 21.1271 136.993 18.7263C111.382 30.9703 77.7982 28.3294 53.3955 41.7739C50.013 43.9346 46.8721 46.3354 43.9727 48.9763Z" fill="white"/>
</svg>
