<svg width="126" height="126" viewBox="0 0 126 126" fill="none" xmlns="http://www.w3.org/2000/svg">
<path d="M119.602 4.67578H6.39844C5.94156 4.67578 5.5034 4.85727 5.18034 5.18034C4.85727 5.5034 4.67578 5.94156 4.67578 6.39844V89.6077C4.67578 90.0645 4.85727 90.5027 5.18034 90.8258C5.5034 91.1488 5.94156 91.3303 6.39844 91.3303H55.5936L53.0578 106.257C49.8884 106.773 47.0053 108.398 44.9228 110.842C42.8404 113.286 41.694 116.391 41.6883 119.602C41.6883 120.058 41.8698 120.497 42.1928 120.82C42.5159 121.143 42.9541 121.324 43.4109 121.324H113.695C115.718 121.322 117.657 120.517 119.087 119.087C120.517 117.657 121.322 115.718 121.324 113.695V6.39844C121.324 5.94156 121.143 5.5034 120.82 5.18034C120.497 4.85727 120.058 4.67578 119.602 4.67578ZM8.12109 8.12109H117.879V46.5383C117.128 46.0435 116.294 45.6868 115.418 45.485V12.3047C115.418 11.8478 115.236 11.4096 114.913 11.0866C114.59 10.7635 114.152 10.582 113.695 10.582H12.3047C11.8478 10.582 11.4096 10.7635 11.0866 11.0866C10.7635 11.4096 10.582 11.8478 10.582 12.3047V77.7952C10.582 78.252 10.7635 78.6902 11.0866 79.0133C11.4096 79.3363 11.8478 79.5178 12.3047 79.5178H73.3901V87.885H8.12109V8.12109ZM81.019 45.2812C79.988 45.2807 78.9676 45.4899 78.02 45.896C77.0723 46.3022 76.2171 46.8968 75.5065 47.6438H27.3656C26.9087 47.6438 26.4706 47.8252 26.1475 48.1483C25.8245 48.4714 25.643 48.9095 25.643 49.3664C25.643 49.8233 25.8245 50.2614 26.1475 50.5845C26.4706 50.9076 26.9087 51.0891 27.3656 51.0891H73.6185C73.4692 51.6843 73.3925 52.2955 73.3901 52.9092V56.2787H27.3656C26.9087 56.2787 26.4706 56.4602 26.1475 56.7832C25.8245 57.1063 25.643 57.5445 25.643 58.0013C25.643 58.4582 25.8245 58.8964 26.1475 59.2194C26.4706 59.5425 26.9087 59.724 27.3656 59.724H73.3901V64.9146H27.3656C26.9087 64.9146 26.4706 65.0961 26.1475 65.4192C25.8245 65.7422 25.643 66.1804 25.643 66.6373C25.643 67.0941 25.8245 67.5323 26.1475 67.8554C26.4706 68.1784 26.9087 68.3599 27.3656 68.3599H73.3901V76.0725H14.0273V14.0273H111.973V45.2812H81.019ZM72.9471 106.249L70.4064 91.3303H73.3901V106.318C73.2434 106.291 73.0948 106.273 72.9481 106.249H72.9471ZM66.9109 91.3303L69.4201 106.066H56.5809L59.0891 91.3303H66.9109ZM55.2234 109.512H70.7766C71.6591 109.512 72.5377 109.629 73.3901 109.857V113.696C73.3896 115.184 73.8264 116.639 74.6461 117.88H45.2812C45.69 115.539 46.9108 113.416 48.7291 111.886C50.5474 110.356 52.8468 109.515 55.2234 109.512ZM117.879 113.695C117.878 114.804 117.436 115.868 116.652 116.652C115.868 117.436 114.804 117.878 113.695 117.879H81.019C79.9098 117.878 78.8465 117.436 78.0622 116.652C77.2779 115.868 76.8367 114.804 76.8354 113.695V52.9102C76.8367 51.801 77.2779 50.7376 78.0622 49.9533C78.8465 49.1691 79.9098 48.7279 81.019 48.7266H113.695C114.804 48.7279 115.868 49.1691 116.652 49.9533C117.436 50.7376 117.878 51.801 117.879 52.9102V113.695Z" fill="white"/>
<path d="M18.2109 20.603C17.9847 20.6029 17.7606 20.6474 17.5516 20.7339C17.3425 20.8204 17.1525 20.9473 16.9925 21.1073C16.8326 21.2673 16.7057 21.4572 16.6191 21.6663C16.5326 21.8754 16.4882 22.0994 16.4883 22.3257V31.1851C16.4883 31.6419 16.6698 32.0801 16.9928 32.4032C17.3159 32.7262 17.7541 32.9077 18.2109 32.9077C18.6678 32.9077 19.106 32.7262 19.429 32.4032C19.7521 32.0801 19.9336 31.6419 19.9336 31.1851V22.3257C19.9337 22.0994 19.8893 21.8754 19.8027 21.6663C19.7162 21.4572 19.5893 21.2673 19.4293 21.1073C19.2693 20.9473 19.0794 20.8204 18.8703 20.7339C18.6613 20.6474 18.4372 20.6029 18.2109 20.603Z" fill="white"/>
<path d="M27.3652 25.1832H98.634C99.0909 25.1832 99.529 25.0017 99.8521 24.6787C100.175 24.3556 100.357 23.9174 100.357 23.4606C100.357 23.0037 100.175 22.5655 99.8521 22.2425C99.529 21.9194 99.0909 21.7379 98.634 21.7379H27.3652C26.9084 21.7379 26.4702 21.9194 26.1471 22.2425C25.8241 22.5655 25.6426 23.0037 25.6426 23.4606C25.6426 23.9174 25.8241 24.3556 26.1471 24.6787C26.4702 25.0017 26.9084 25.1832 27.3652 25.1832Z" fill="white"/>
<path d="M98.634 30.3739H27.3652C26.9084 30.3739 26.4702 30.5554 26.1471 30.8785C25.8241 31.2015 25.6426 31.6397 25.6426 32.0966C25.6426 32.5534 25.8241 32.9916 26.1471 33.3147C26.4702 33.6377 26.9084 33.8192 27.3652 33.8192H98.634C99.0909 33.8192 99.529 33.6377 99.8521 33.3147C100.175 32.9916 100.357 32.5534 100.357 32.0966C100.357 31.6397 100.175 31.2015 99.8521 30.8785C99.529 30.5554 99.0909 30.3739 98.634 30.3739Z" fill="white"/>
<path d="M98.634 39.0088H27.3652C26.9084 39.0088 26.4702 39.1903 26.1471 39.5133C25.8241 39.8364 25.6426 40.2746 25.6426 40.7314C25.6426 41.1883 25.8241 41.6265 26.1471 41.9495C26.4702 42.2726 26.9084 42.4541 27.3652 42.4541H98.634C99.0909 42.4541 99.529 42.2726 99.8521 41.9495C100.175 41.6265 100.357 41.1883 100.357 40.7314C100.357 40.2746 100.175 39.8364 99.8521 39.5133C99.529 39.1903 99.0909 39.0088 98.634 39.0088Z" fill="white"/>
<path d="M91.4482 54.6328H103.261C103.718 54.6328 104.156 54.4513 104.479 54.1283C104.802 53.8052 104.983 53.367 104.983 52.9102C104.983 52.4533 104.802 52.0151 104.479 51.6921C104.156 51.369 103.718 51.1875 103.261 51.1875H91.4482C90.9914 51.1875 90.5532 51.369 90.2301 51.6921C89.9071 52.0151 89.7256 52.4533 89.7256 52.9102C89.7256 53.367 89.9071 53.8052 90.2301 54.1283C90.5532 54.4513 90.9914 54.6328 91.4482 54.6328Z" fill="white"/>
<path d="M100.308 111.973H94.4014C93.9445 111.973 93.5063 112.154 93.1833 112.477C92.8602 112.8 92.6787 113.238 92.6787 113.695C92.6787 114.152 92.8602 114.59 93.1833 114.913C93.5063 115.236 93.9445 115.418 94.4014 115.418H100.308C100.764 115.418 101.203 115.236 101.526 114.913C101.849 114.59 102.03 114.152 102.03 113.695C102.03 113.238 101.849 112.8 101.526 112.477C101.203 112.154 100.764 111.973 100.308 111.973Z" fill="white"/>
<path d="M97.3545 71.7363C95.0669 71.7363 92.8306 72.4147 90.9285 73.6856C89.0265 74.9566 87.544 76.763 86.6685 78.8765C85.7931 80.99 85.564 83.3156 86.0103 85.5592C86.4566 87.8029 87.5582 89.8638 89.1758 91.4814C90.7934 93.099 92.8543 94.2006 95.098 94.6469C97.3417 95.0932 99.6673 94.8641 101.781 93.9887C103.894 93.1133 105.701 91.6308 106.972 89.7287C108.243 87.8266 108.921 85.5904 108.921 83.3027C108.917 80.2363 107.697 77.2964 105.529 75.1281C103.361 72.9597 100.421 71.74 97.3545 71.7363ZM97.3545 91.4238C95.7483 91.4238 94.1782 90.9475 92.8427 90.0552C91.5072 89.1628 90.4663 87.8945 89.8516 86.4105C89.2369 84.9266 89.0761 83.2937 89.3895 81.7184C89.7028 80.1431 90.4763 78.696 91.612 77.5603C92.7478 76.4245 94.1948 75.651 95.7702 75.3377C97.3455 75.0243 98.9784 75.1852 100.462 75.7998C101.946 76.4145 103.215 77.4554 104.107 78.7909C104.999 80.1264 105.476 81.6965 105.476 83.3027C105.473 85.4558 104.617 87.5199 103.094 89.0423C101.572 90.5648 99.5075 91.4212 97.3545 91.4238Z" fill="white"/>
<path d="M100.262 78.9695L95.2483 83.9819L94.4529 83.1875C94.13 82.8646 93.6919 82.6831 93.2352 82.6831C92.7785 82.6831 92.3405 82.8646 92.0176 83.1875C91.6946 83.5105 91.5132 83.9485 91.5132 84.4052C91.5132 84.8619 91.6946 85.2999 92.0176 85.6229L94.0296 87.6359C94.1895 87.796 94.3794 87.923 94.5884 88.0097C94.7975 88.0963 95.0215 88.1409 95.2478 88.1409C95.4741 88.1409 95.6981 88.0963 95.9071 88.0097C96.1162 87.923 96.3061 87.796 96.466 87.6359L102.697 81.4048C103.02 81.0819 103.201 80.6439 103.201 80.1871C103.201 79.7304 103.02 79.2924 102.697 78.9695C102.374 78.6465 101.936 78.4651 101.479 78.4651C101.023 78.4651 100.585 78.6465 100.262 78.9695Z" fill="white"/>
</svg>
