<svg width="139" height="139" viewBox="0 0 139 139" fill="none" xmlns="http://www.w3.org/2000/svg">
<path d="M76.0156 67.3281C73.4383 67.3281 70.9188 66.5639 68.7759 65.132C66.6329 63.7001 64.9626 61.6649 63.9763 59.2837C62.99 56.9026 62.732 54.2824 63.2348 51.7546C63.7376 49.2268 64.9787 46.9048 66.8011 45.0824C68.6236 43.2599 70.9455 42.0188 73.4734 41.516C76.0012 41.0132 78.6213 41.2713 81.0025 42.2576C83.3836 43.2439 85.4188 44.9141 86.8507 47.0571C88.2826 49.2001 89.0469 51.7195 89.0469 54.2969C89.043 57.7518 87.6688 61.0641 85.2258 63.507C82.7828 65.95 79.4705 67.3242 76.0156 67.3281ZM76.0156 45.6094C74.2974 45.6094 72.6178 46.1189 71.1891 47.0735C69.7605 48.0281 68.647 49.3849 67.9894 50.9723C67.3319 52.5598 67.1598 54.3065 67.4951 55.9917C67.8303 57.6769 68.6577 59.2249 69.8726 60.4399C71.0876 61.6548 72.6356 62.4822 74.3208 62.8174C76.006 63.1527 77.7528 62.9806 79.3402 62.3231C80.9276 61.6655 82.2844 60.552 83.239 59.1234C84.1936 57.6947 84.7031 56.0151 84.7031 54.2969C84.7005 51.9936 83.7844 49.7854 82.1558 48.1567C80.5271 46.5281 78.3189 45.612 76.0156 45.6094Z" fill="white"/>
<path d="M119.453 49.9531H117.281V45.2347C118.551 44.785 119.65 43.9532 120.428 42.8536C121.205 41.754 121.624 40.4406 121.625 39.0938V34.75C121.625 33.8164 121.425 32.8937 121.036 32.0448C120.648 31.1958 120.081 30.4406 119.374 29.8307C119.345 29.7199 119.306 29.6118 119.257 29.5076C115.838 22.0109 110.338 15.654 103.41 11.193C96.4828 6.73201 88.4197 4.35467 80.18 4.34375H70.0998C61.2215 4.35382 52.564 7.11219 45.3162 12.2401C38.0685 17.3679 32.5859 24.6138 29.6215 32.9826L13.156 79.6372C12.9716 80.1568 12.9923 80.7271 13.2137 81.232C13.4351 81.7369 13.8407 82.1384 14.3478 82.3548L28.3428 88.3519L30.4115 115.275C30.4536 115.821 30.7 116.331 31.1017 116.703C31.5033 117.075 32.0305 117.281 32.578 117.281H47.7811V134.656H52.1248V117.281H56.4686V134.656H60.8123V117.281H65.1561V134.656H69.4998V117.281H73.8436V134.656H78.1873V128.141H86.8748V134.656H91.2186V128.141H99.9061V134.656H104.25V117.281C104.25 116.996 104.194 116.714 104.085 116.45C103.976 116.186 103.816 115.947 103.614 115.745C103.412 115.544 103.173 115.384 102.909 115.275C102.646 115.165 102.363 115.109 102.078 115.109V110.766H106.422C108.149 110.763 109.805 110.076 111.026 108.855C112.248 107.633 112.935 105.977 112.937 104.25V99.9062C112.936 98.5594 112.518 97.246 111.74 96.1464C110.962 95.0468 109.863 94.215 108.594 93.7653V89.0469H115.109C116.837 89.0446 118.492 88.3574 119.714 87.136C120.935 85.9145 121.623 84.2586 121.625 82.5312V78.1875C121.624 76.8407 121.205 75.5272 120.428 74.4277C119.65 73.3281 118.551 72.4963 117.281 72.0465V67.3281H119.453C121.18 67.3258 122.836 66.6386 124.058 65.4172C125.279 64.1958 125.966 62.5398 125.969 60.8125V56.4688C125.966 54.7414 125.279 53.0855 124.058 51.864C122.836 50.6426 121.18 49.9554 119.453 49.9531ZM117.281 34.75V39.0938C117.28 39.6695 117.051 40.2215 116.644 40.6287C116.237 41.0358 115.685 41.2649 115.109 41.2656H112.869C111.789 38.1991 110.328 35.2805 108.52 32.5781H115.109C115.685 32.5789 116.237 32.808 116.644 33.2151C117.051 33.6222 117.28 34.1742 117.281 34.75ZM112.937 67.3281V71.6719H111.032C111.734 70.2631 112.35 68.8125 112.875 67.3281H112.937ZM76.0155 89.0469C70.7488 89.046 65.5509 87.8514 60.8123 85.5529V75.4509C63.6242 77.474 66.8113 78.916 70.1872 79.6925C73.563 80.469 77.0598 80.5644 80.473 79.9732C83.8862 79.382 87.1472 78.116 90.0653 76.2493C92.9833 74.3826 95.4997 71.9527 97.4673 69.1017C99.4349 66.2508 100.814 63.036 101.524 59.6456C102.235 56.2552 102.262 52.7572 101.604 49.3562C100.946 45.9553 99.6161 42.7197 97.6926 39.8388C95.7691 36.9579 93.2903 34.4895 90.4014 32.5781H103.145C107.236 37.6893 109.8 43.852 110.542 50.3565C111.283 56.8611 110.173 63.4429 107.338 69.3439C104.503 75.2449 100.059 80.2251 94.5171 83.7109C88.9756 87.1967 82.5622 89.0464 76.0155 89.0469ZM93.9144 89.0469H104.25V93.3906H89.0467C89.047 92.6719 88.9277 91.9581 88.6938 91.2785C90.4866 90.6643 92.2316 89.9184 93.9144 89.0469ZM60.8123 99.9062H82.5311C83.1071 99.9062 83.6595 100.135 84.0668 100.542C84.4741 100.95 84.7029 101.502 84.7029 102.078C84.7029 102.654 84.4741 103.207 84.0668 103.614C83.6595 104.021 83.1071 104.25 82.5311 104.25H60.8123V99.9062ZM82.5311 95.5625H60.8123V90.3201C68.2949 93.4689 76.5701 94.2182 84.4966 92.4648C84.632 92.7547 84.7024 93.0707 84.7029 93.3906C84.7022 93.9664 84.4731 94.5184 84.066 94.9255C83.6588 95.3327 83.1069 95.5617 82.5311 95.5625ZM54.2967 54.2969C54.2967 50.0013 55.5705 45.8022 57.957 42.2306C60.3435 38.659 63.7355 35.8752 67.704 34.2314C71.6726 32.5875 76.0396 32.1574 80.2526 32.9954C84.4656 33.8335 88.3355 35.902 91.3729 38.9394C94.4103 41.9768 96.4789 45.8467 97.3169 50.0598C98.1549 54.2728 97.7248 58.6397 96.081 62.6083C94.4371 66.5769 91.6534 69.9689 88.0817 72.3554C84.5101 74.7418 80.311 76.0156 76.0155 76.0156C70.2573 76.0089 64.737 73.7185 60.6654 69.6469C56.5938 65.5753 54.3034 60.055 54.2967 54.2969ZM56.4686 71.6719V112.938H34.5896L32.5725 86.7094C32.542 86.3137 32.4037 85.9339 32.1725 85.6113C31.9413 85.2887 31.6262 85.0356 31.2613 84.8796L17.9287 79.1648L28.2369 49.9531H36.9217C38.0733 49.9546 39.1772 50.4128 39.9915 51.2271C40.8058 52.0413 41.2639 53.1453 41.2655 54.2969V62.9844H45.6092V54.2969C45.6071 51.9935 44.6911 49.785 43.0623 48.1562C41.4336 46.5275 39.2251 45.6115 36.9217 45.6094H29.7708L33.7155 34.4296C36.3797 26.9071 41.3077 20.3938 47.8225 15.7846C54.3373 11.1753 62.1193 8.69612 70.0998 8.6875H80.1801C87.0004 8.69735 93.6969 10.5106 99.5904 13.9435C105.484 17.3763 110.365 22.3066 113.738 28.2344H76.0155C70.9829 28.2312 66.0573 29.6861 61.8341 32.423C57.6109 35.1599 54.271 39.0616 52.2182 43.6565C50.1655 48.2513 49.4878 53.3424 50.2672 58.3142C51.0465 63.286 53.2495 67.9256 56.6098 71.6719H56.4686ZM60.8123 112.938V108.594H82.5311C83.1071 108.594 83.6595 108.823 84.0668 109.23C84.4741 109.637 84.7029 110.19 84.7029 110.766C84.7029 111.342 84.4741 111.894 84.0668 112.301C83.6595 112.709 83.1071 112.938 82.5311 112.938H60.8123ZM86.8748 123.797H78.1873V119.453H86.8748V123.797ZM87.3825 115.109C88.455 113.917 89.0479 112.369 89.0467 110.766H97.7342V115.109H87.3825ZM99.9061 123.797H91.2186V119.453H99.9061V123.797ZM108.594 104.25C108.593 104.826 108.364 105.378 107.957 105.785C107.549 106.192 106.997 106.421 106.422 106.422H87.3825C88.454 105.229 89.0467 103.682 89.0467 102.078C89.0467 100.475 88.454 98.9275 87.3825 97.7344H106.422C106.997 97.7351 107.549 97.9642 107.957 98.3713C108.364 98.7785 108.593 99.3305 108.594 99.9062V104.25ZM117.281 82.5312C117.28 83.107 117.051 83.659 116.644 84.0661C116.237 84.4733 115.685 84.7024 115.109 84.7031H100.563C103.631 82.2209 106.308 79.2925 108.507 76.0156H115.109C115.685 76.0164 116.237 76.2455 116.644 76.6526C117.051 77.0597 117.28 77.6117 117.281 78.1875V82.5312ZM121.625 60.8125C121.624 61.3883 121.395 61.9403 120.988 62.3474C120.581 62.7545 120.029 62.9836 119.453 62.9844H114.137C114.784 60.1339 115.11 57.2199 115.109 54.2969H119.453C120.029 54.2976 120.581 54.5267 120.988 54.9338C121.395 55.341 121.624 55.893 121.625 56.4688V60.8125Z" fill="white"/>
<path d="M41.0283 39.8166L36.9321 38.3709L37.8129 35.8753C40.1771 29.1997 44.5502 23.4198 50.3315 19.3294C56.1127 15.2391 63.0186 13.039 70.1005 13.0312H80.179C87.6391 13.0517 94.8912 15.4924 100.845 19.9868L98.2242 23.4507C93.0254 19.5255 86.6932 17.3935 80.179 17.375H70.1005C63.917 17.3817 57.8873 19.3027 52.8394 22.8741C47.7916 26.4456 43.9733 31.4923 41.909 37.321L41.0283 39.8166Z" fill="white"/>
<path d="M76.0156 26.0625C77.2151 26.0625 78.1875 25.0901 78.1875 23.8906C78.1875 22.6911 77.2151 21.7188 76.0156 21.7188C74.8161 21.7188 73.8438 22.6911 73.8438 23.8906C73.8438 25.0901 74.8161 26.0625 76.0156 26.0625Z" fill="white"/>
<path d="M60.8125 30.1361C62.012 30.1361 62.9844 29.1637 62.9844 27.9642C62.9844 26.7647 62.012 25.7924 60.8125 25.7924C59.613 25.7924 58.6406 26.7647 58.6406 27.9642C58.6406 29.1637 59.613 30.1361 60.8125 30.1361Z" fill="white"/>
<path d="M49.6831 41.2656C50.8826 41.2656 51.855 40.2932 51.855 39.0938C51.855 37.8943 50.8826 36.9219 49.6831 36.9219C48.4836 36.9219 47.5112 37.8943 47.5112 39.0938C47.5112 40.2932 48.4836 41.2656 49.6831 41.2656Z" fill="white"/>
<path d="M76.0156 86.875C77.2151 86.875 78.1875 85.9026 78.1875 84.7031C78.1875 83.5036 77.2151 82.5312 76.0156 82.5312C74.8161 82.5312 73.8438 83.5036 73.8438 84.7031C73.8438 85.9026 74.8161 86.875 76.0156 86.875Z" fill="white"/>
<path d="M91.2188 82.8013C92.4182 82.8013 93.3906 81.8289 93.3906 80.6294C93.3906 79.4299 92.4182 78.4575 91.2188 78.4575C90.0193 78.4575 89.0469 79.4299 89.0469 80.6294C89.0469 81.8289 90.0193 82.8013 91.2188 82.8013Z" fill="white"/>
<path d="M102.348 71.6719C103.548 71.6719 104.52 70.6995 104.52 69.5C104.52 68.3005 103.548 67.3281 102.348 67.3281C101.149 67.3281 100.176 68.3005 100.176 69.5C100.176 70.6995 101.149 71.6719 102.348 71.6719Z" fill="white"/>
<path d="M106.422 56.4688C107.621 56.4688 108.594 55.4964 108.594 54.2969C108.594 53.0974 107.621 52.125 106.422 52.125C105.222 52.125 104.25 53.0974 104.25 54.2969C104.25 55.4964 105.222 56.4688 106.422 56.4688Z" fill="white"/>
<path d="M102.348 41.2656C103.548 41.2656 104.52 40.2932 104.52 39.0938C104.52 37.8943 103.548 36.9219 102.348 36.9219C101.149 36.9219 100.176 37.8943 100.176 39.0938C100.176 40.2932 101.149 41.2656 102.348 41.2656Z" fill="white"/>
</svg>
