<svg width="27" height="27" viewBox="0 0 27 27" fill="none" xmlns="http://www.w3.org/2000/svg">
<path d="M26.1456 1.12012H0.854358C0.382525 1.12012 0 1.50264 0 1.97448V19.5002C0 19.972 0.382525 20.3546 0.854358 20.3546H7.1757C7.64753 20.3546 8.03006 19.972 8.03006 19.5002C8.03006 19.0284 7.64753 18.6459 7.1757 18.6459H1.70872V2.82883H25.2913V18.6459H15.1458C14.9719 18.6459 14.802 18.6989 14.6591 18.7982L6.68894 24.3232C6.30118 24.592 6.20481 25.1243 6.47353 25.5122C6.63939 25.7515 6.90561 25.8799 7.1765 25.8799C7.34441 25.8799 7.51402 25.8306 7.66245 25.7276L15.413 20.3547H26.1455C26.6174 20.3547 26.9999 19.9722 26.9999 19.5003V1.97448C27 1.50264 26.6175 1.12012 26.1456 1.12012Z" fill="black"/>
<path d="M16.6617 7.91135C17.1335 7.91135 17.516 7.52883 17.516 7.05699C17.516 6.58516 17.1335 6.20264 16.6617 6.20264H10.3387C9.8669 6.20264 9.48438 6.58516 9.48438 7.05699C9.48438 7.52883 9.8669 7.91135 10.3387 7.91135H16.6617Z" fill="black"/>
<path d="M6.32324 10.7374C6.32324 11.2092 6.70577 11.5918 7.1776 11.5918H19.8232C20.2951 11.5918 20.6776 11.2092 20.6776 10.7374C20.6776 10.2656 20.2951 9.88306 19.8232 9.88306H7.1776C6.70577 9.88306 6.32324 10.2655 6.32324 10.7374Z" fill="black"/>
<path d="M7.1776 15.2719H19.8232C20.2951 15.2719 20.6776 14.8894 20.6776 14.4176C20.6776 13.9458 20.2951 13.5632 19.8232 13.5632H7.1776C6.70577 13.5632 6.32324 13.9458 6.32324 14.4176C6.32324 14.8894 6.70577 15.2719 7.1776 15.2719Z" fill="black"/>
</svg>
