<svg width="112" height="112" viewBox="0 0 112 112" fill="none" xmlns="http://www.w3.org/2000/svg">
<path d="M111.926 16.7033C111.834 16.3834 111.657 16.0944 111.414 15.8665C111.171 15.6386 110.871 15.4802 110.546 15.408L99.1591 12.8355L96.5866 1.44857C96.5135 1.12429 96.3547 0.825589 96.1267 0.583633C95.8988 0.341678 95.6101 0.165342 95.2908 0.0730343C94.9714 -0.019274 94.6332 -0.0241706 94.3113 0.0588558C93.9894 0.141882 93.6957 0.309787 93.4609 0.545044L80.3646 13.6435C69.2824 6.95613 56.1357 4.55644 43.4055 6.89724C30.6753 9.23805 19.2422 16.1575 11.2637 26.3496C3.28524 36.5418 -0.686728 49.3019 0.0973771 62.2217C0.881483 75.1415 6.36743 87.3275 15.5199 96.48C24.6724 105.633 36.8584 111.119 49.7783 111.903C62.6981 112.687 75.4581 108.715 85.6503 100.736C95.8425 92.7578 102.762 81.3247 105.103 68.5945C107.443 55.8643 105.044 42.7176 98.3565 31.6353L111.458 18.5337C111.693 18.2983 111.86 18.0044 111.942 17.6824C112.024 17.3605 112.019 17.0224 111.926 16.7033ZM102.258 59.0181C102.257 69.8653 98.6757 80.4088 92.0705 89.0131C85.4654 97.6174 76.2054 103.801 65.7271 106.606C55.2487 109.411 44.1377 108.679 34.1176 104.524C24.0975 100.37 15.7286 93.0247 10.3089 83.6285C4.8892 74.2323 2.72179 63.3102 4.14287 52.5564C5.56396 41.8027 10.4941 31.8185 18.1685 24.1527C25.8429 16.4868 35.8326 11.5678 46.5878 10.1587C57.3431 8.7496 68.2628 10.9292 77.653 16.3593L71.6384 22.374C71.5867 22.4328 71.5388 22.4948 71.495 22.5598C62.8104 18.1383 52.8335 16.9595 43.3576 19.2353C33.8817 21.511 25.5282 27.0921 19.7987 34.9752C14.0691 42.8584 11.3392 52.5267 12.0997 62.2423C12.8601 71.958 17.0611 81.0838 23.9474 87.9795C30.8337 94.8752 39.9538 99.0885 49.6684 99.8622C59.383 100.636 69.055 97.9191 76.9459 92.2003C84.8368 86.4815 90.4292 78.1356 92.7178 68.6628C95.0065 59.19 93.8413 49.2115 89.4317 40.5208C89.5 40.4726 89.5649 40.4197 89.626 40.3626L95.6406 34.348C99.984 41.8436 102.267 50.3549 102.258 59.0181ZM85.0224 40.2108C89.5853 48.0003 91.1533 57.1855 89.433 66.0476C87.7126 74.9097 82.8218 82.8411 75.6758 88.3575C68.5298 93.8739 59.6185 96.5973 50.6096 96.0178C41.6008 95.4383 33.1118 91.5957 26.7315 85.2093C20.3511 78.8228 16.5167 70.3301 15.9459 61.3207C15.3751 52.3112 18.107 43.4025 23.6303 36.2619C29.1536 29.1212 37.0897 24.238 45.9534 22.5262C54.8171 20.8143 64.0009 22.3912 71.7859 26.9616L73.7427 35.6295L71.8656 37.5066C66.2678 32.591 58.9778 30.045 51.5368 30.4069C44.0959 30.7688 37.0874 34.0102 31.993 39.4458C26.8987 44.8815 24.1178 52.0852 24.2385 59.5339C24.3592 66.9827 27.3719 74.0926 32.6396 79.3603C37.9074 84.6281 45.0173 87.6408 52.466 87.7615C59.9147 87.8821 67.1185 85.1013 72.5541 80.007C77.9897 74.9126 81.2311 67.9041 81.593 60.4631C81.9549 53.0222 79.4089 45.7322 74.4933 40.1344L76.3704 38.2573L85.0224 40.2108ZM60.9713 59.0181C60.9779 60.7942 60.3946 62.5223 59.3129 63.9311C58.2313 65.34 56.7126 66.3499 54.995 66.8023C53.2774 67.2548 51.4583 67.1242 49.8229 66.4311C48.1876 65.738 46.8286 64.5216 45.9593 62.9727C45.0899 61.4239 44.7594 59.6302 45.0195 57.8732C45.2797 56.1162 46.1158 54.4953 47.3967 53.2648C48.6775 52.0343 50.3307 51.2638 52.0967 51.0743C53.8627 50.8848 55.6417 51.287 57.1544 52.2178L51.6675 57.7047C51.49 57.8762 51.3485 58.0812 51.2512 58.3079C51.1539 58.5346 51.1027 58.7784 51.1006 59.0251C51.0985 59.2719 51.1456 59.5165 51.239 59.7448C51.3325 59.9731 51.4705 60.1806 51.645 60.355C51.8195 60.5294 52.0269 60.6673 52.2553 60.7607C52.4837 60.8541 52.7283 60.901 52.975 60.8988C53.2217 60.8966 53.4655 60.8453 53.6922 60.7479C53.9189 60.6505 54.1239 60.5089 54.2952 60.3314L59.7822 54.8445C60.559 56.098 60.9708 57.5434 60.9713 59.0181ZM59.8289 49.5433C57.4351 47.8094 54.4758 47.0411 51.5408 47.3915C48.6058 47.742 45.9106 49.1855 43.9923 51.4343C42.0741 53.6831 41.0736 56.5722 41.1902 59.5257C41.3069 62.4793 42.5322 65.2804 44.6218 67.3709C46.7115 69.4614 49.5121 70.6878 52.4656 70.8057C55.4191 70.9236 58.3086 69.9242 60.5582 68.0069C62.8078 66.0895 64.2524 63.3949 64.604 60.46C64.9557 57.5252 64.1886 54.5656 62.4556 52.1711L71.8603 42.7664C76.0742 47.662 78.2263 54.0005 77.8643 60.4497C77.5023 66.899 74.6544 72.9568 69.9191 77.3501C65.1838 81.7434 58.9299 84.13 52.4716 84.0084C46.0134 83.8868 39.8537 81.2665 35.2871 76.6981C30.7206 72.1297 28.1027 65.9689 27.9837 59.5106C27.8647 53.0523 30.2539 46.7993 34.6491 42.0658C39.0443 37.3323 45.1033 34.4868 51.5527 34.1274C58.0021 33.7681 64.3397 35.9227 69.2336 40.1386L59.8289 49.5433ZM94.6999 30.0332L87.7266 37.0055L86.6808 36.7698L86.6404 36.7602L77.3345 34.6655L74.9891 24.2787L93.7093 5.55529L95.7977 14.7986C95.8752 15.1413 96.0481 15.455 96.2965 15.7034C96.5449 15.9518 96.8586 16.1248 97.2013 16.2022L106.445 18.2906L94.6999 30.0332Z" fill="#19193A"/>
</svg>
