<svg width="14" height="14" viewBox="0 0 14 14" fill="none" xmlns="http://www.w3.org/2000/svg">
<path d="M11.9492 0H2.05078C0.919968 0 0 0.919968 0 2.05078V11.9492C0 13.08 0.919968 14 2.05078 14H11.9492C13.08 14 14 13.08 14 11.9492V2.05078C14 0.919968 13.08 0 11.9492 0ZM13.1797 11.9492C13.1797 12.6277 12.6277 13.1797 11.9492 13.1797H2.05078C1.37231 13.1797 0.820312 12.6277 0.820312 11.9492V2.05078C0.820312 1.37231 1.37231 0.820312 2.05078 0.820312H11.9492C12.6277 0.820312 13.1797 1.37231 13.1797 2.05078V11.9492Z" fill="white"/>
<path d="M2.48828 11.5391H4.94922V5.74219H2.48828V11.5391ZM3.30859 6.5625H4.12891V10.7188H3.30859V6.5625Z" fill="white"/>
<path d="M9.05313 5.74219C9.05238 5.74219 9.05153 5.74219 9.05078 5.74219C8.7672 5.74219 8.49098 5.78961 8.23047 5.88168V5.74219H5.76953V11.5391H8.23047V8.61328C8.23047 8.38716 8.41451 8.20312 8.64062 8.20312C8.86674 8.20312 9.05078 8.38716 9.05078 8.61328V11.5391H11.5117V8.3313C11.5117 7.00385 10.4348 5.74347 9.05313 5.74219ZM10.6914 10.7188H9.87109V8.61328C9.87109 7.93481 9.31909 7.38281 8.64062 7.38281C7.96216 7.38281 7.41026 7.93481 7.41016 8.61317V10.7188H6.58984V6.5625H7.41016V7.38335L8.06662 6.8903C8.35213 6.67583 8.69243 6.5625 9.05078 6.5625H9.05238C9.92546 6.56335 10.6914 7.38986 10.6914 8.3313V10.7188Z" fill="white"/>
<path d="M2.48828 4.92188H4.94922V2.46094H2.48828V4.92188ZM3.30859 3.28125H4.12891V4.10156H3.30859V3.28125Z" fill="white"/>
</svg>
