<svg width="18" height="14" viewBox="0 0 18 14" fill="none" xmlns="http://www.w3.org/2000/svg">
<path d="M15.1864 2.25424L15.1779 2.22115C15.9079 1.78349 16.4974 1.06198 16.7596 0.235577C16.0758 0.642351 15.2757 0.950957 14.4712 1.11058C13.8259 0.423163 12.9651 0 11.9471 0C9.99603 0 8.37981 1.57961 8.37981 3.53365C8.37981 3.8117 8.41908 4.08389 8.48077 4.34135V4.375C5.57284 4.20888 2.93993 2.73 1.21154 0.605769C0.908216 1.12841 0.740385 1.87526 0.740385 2.52404C0.740385 3.53365 1.33989 4.8859 2.28846 5.51923V5.58654C1.72207 5.56369 1.14194 5.17351 0.673077 4.91346C0.673077 4.92891 0.693606 4.94749 0.693606 4.96293C0.693606 6.67756 1.95037 8.15638 3.56731 8.48077C3.28552 8.55531 2.88864 8.61539 2.59135 8.61539C2.36257 8.61539 2.13419 8.55562 1.91827 8.51442C2.36812 9.92011 3.66827 10.8365 5.21635 10.8365V10.8702C4.01137 11.8044 2.48406 12.4519 0.841346 12.4519C0.555995 12.4519 0.201923 12.4183 0 12.3846C1.56292 13.3887 3.42091 14 5.41827 14C11.9193 14 15.4808 8.64904 15.4808 3.97115V3.5C16.1723 3.00054 16.7578 2.32595 17.2308 1.61538C17.2308 1.61538 15.9901 2.20328 15.1864 2.25424ZM14.1346 3.97115C14.1346 4.98117 13.9368 6.04181 13.5625 7.03837C13.1692 8.08571 12.603 9.03074 11.8798 9.84718C10.7455 11.1276 8.70386 12.6538 5.41827 12.6538C5.32172 12.6538 5.22533 12.6522 5.12895 12.6488C5.44617 12.4648 5.75104 12.26 6.04113 12.0351L6.5625 11.6309V10.9712V10.8365V9.49039L6.00792 9.48423C5.40151 9.4775 4.91346 8.98403 4.91346 8.37759V7.2769L4.18549 7.1125C3.86336 7.03975 3.63462 6.75359 3.63462 6.42334V5.58654V5.48558L3.61779 4.79941L3.01912 4.3997C2.76059 4.1822 2.52629 3.87154 2.35937 3.53534C4.12583 4.82354 6.22374 5.59441 8.404 5.71897L9.82692 5.80024V4.375V4.34135V4.18233L9.78987 4.02769C9.74747 3.85071 9.72596 3.68449 9.72596 3.53365C9.72596 2.954 9.95723 2.40665 10.3772 1.99241C10.7996 1.57567 11.3572 1.34615 11.9471 1.34615C12.5436 1.34615 13.0626 1.57685 13.4896 2.03185L13.8331 2.39777L13.8746 2.5583L13.8832 2.59138L14.1346 3.5633V3.97115Z" fill="white"/>
</svg>
