<svg width="15" height="14" viewBox="0 0 15 14" fill="none" xmlns="http://www.w3.org/2000/svg">
<path d="M12.7732 0H2.05444C1.1498 0 0.413818 0.735984 0.413818 1.64062V12.3594C0.413818 13.264 1.1498 14 2.05444 14H12.7732C13.6778 14 14.4138 13.264 14.4138 12.3594V1.64062C14.4138 0.735984 13.6778 0 12.7732 0ZM13.3201 12.3594C13.3201 12.6609 13.0747 12.9062 12.7732 12.9062H9.65601V8.44922H11.3456L11.6248 6.75391H9.65601V5.57812C9.65601 5.11397 10.0122 4.75781 10.4763 4.75781H11.5974V3.0625H10.4763C9.08389 3.0625 7.9613 4.19043 7.9613 5.58288V6.75391H6.32007V8.44922H7.9613V12.9062H2.05444C1.7529 12.9062 1.50757 12.6609 1.50757 12.3594V1.64062C1.50757 1.33908 1.7529 1.09375 2.05444 1.09375H12.7732C13.0747 1.09375 13.3201 1.33908 13.3201 1.64062V12.3594Z" fill="white"/>
</svg>
