<svg width="99" height="99" viewBox="0 0 99 99" fill="none" xmlns="http://www.w3.org/2000/svg">
<path d="M97.0664 95.9133C98.1341 95.9133 99 95.0474 99 93.9797V70.5984C98.9998 65.4375 96.0271 60.9602 91.7057 58.7807C93.9539 56.8773 95.385 54.0372 95.385 50.8677V48.4576C95.385 42.7406 90.7337 38.0894 85.0167 38.0894C79.2996 38.0894 74.6484 42.7406 74.6484 48.4576V50.8677C74.6484 53.6228 75.7306 56.1284 77.4896 57.9872C74.0901 58.7455 70.8757 60.1926 68.0044 62.2873L50.4953 75.0606C50.1334 75.3247 49.8015 75.6215 49.4999 75.9438C49.1983 75.6215 48.8663 75.3247 48.5045 75.0606L30.9954 62.2873C28.1241 60.1926 24.9097 58.7455 21.5102 57.9872C23.2692 56.1284 24.3516 53.6228 24.3516 50.8677V48.4576C24.3516 42.7406 19.7004 38.0894 13.9833 38.0894C8.26629 38.0894 3.61504 42.7406 3.61504 48.4576V50.8677C3.61504 54.0372 5.04609 56.8773 7.29427 58.7807C2.9727 60.9602 0 65.4375 0 70.5986V97.0577C0 98.1254 0.865862 98.9912 1.93359 98.9912H26.0329C27.1006 98.9912 27.9665 98.1254 27.9665 97.0577V79.3029L40.6178 86.9309C42.8505 88.277 45.5384 88.3151 47.8084 87.0333C48.4496 86.6712 49.0146 86.2238 49.4999 85.7129C49.9852 86.2239 50.5502 86.6714 51.1914 87.0333C52.2961 87.6573 53.4997 87.9684 54.7015 87.9684C55.9695 87.9684 57.2358 87.6219 58.3819 86.9309L71.0333 79.3029V97.0577C71.0333 98.1254 71.8992 98.9912 72.9669 98.9912H97.0662C98.1339 98.9912 98.9998 98.1254 98.9998 97.0577V90.0716C98.9998 89.0039 98.1339 88.138 97.0662 88.138C95.9985 88.138 95.1326 89.0039 95.1326 90.0716V95.1241H74.9005V77.2799C74.9005 77.1798 74.8905 77.0821 74.876 76.986L76.9778 75.7188C77.8924 75.1673 78.1866 73.9791 77.6352 73.0645C77.0835 72.1499 75.8948 71.8551 74.9809 72.4071L56.385 83.6192C55.3627 84.2356 54.132 84.253 53.0931 83.666C52.054 83.0792 51.4335 82.0163 51.4335 80.8227C51.4335 79.7834 51.9349 78.797 52.7746 78.1845L70.2837 65.4112C74.0281 62.6794 78.4572 61.2356 83.0924 61.2356H85.7698C90.9325 61.2356 95.1328 65.4357 95.1328 70.5984V93.9797C95.1328 95.0474 95.9987 95.9133 97.0664 95.9133ZM7.48203 48.4576C7.48203 44.873 10.3985 41.9565 13.9831 41.9565C17.5678 41.9565 20.4843 44.873 20.4843 48.4576V50.8677C20.4843 54.4524 17.5678 57.3688 13.9831 57.3688C10.3985 57.3688 7.48203 54.4524 7.48203 50.8677V48.4576ZM45.9067 83.666C44.8672 84.2528 43.6367 84.2352 42.6146 83.6192L24.0189 72.4071C23.1045 71.8552 21.9159 72.1501 21.3646 73.0645C20.8132 73.9789 21.1075 75.1673 22.022 75.7188L24.1215 76.9847C24.1068 77.081 24.0991 77.1796 24.0991 77.2799V95.1241H3.86718V70.5986C3.86718 65.4359 8.06752 61.2358 13.2302 61.2358H15.9076C20.5428 61.2358 24.9719 62.6796 28.7163 65.4114L46.2254 78.1847C47.0651 78.7972 47.5665 79.7835 47.5665 80.8228C47.5663 82.0163 46.9458 83.0792 45.9067 83.666ZM91.5178 50.8677C91.5178 54.4524 88.6013 57.3688 85.0167 57.3688C81.432 57.3688 78.5155 54.4524 78.5155 50.8677V48.4576C78.5155 44.873 81.432 41.9565 85.0167 41.9565C88.6013 41.9565 91.5178 44.873 91.5178 48.4576V50.8677Z" fill="#19193A"/>
<path d="M85.8657 0H79.4848C78.4171 0 77.5513 0.865668 77.5513 1.93359C77.5513 3.00151 78.4171 3.86718 79.4848 3.86718H81.1974L58.6015 26.4633L43.8148 11.6766C43.452 11.314 42.9603 11.1102 42.4475 11.1102C41.9347 11.1102 41.443 11.314 41.0803 11.6766L27.3019 25.4549C26.5468 26.2102 26.5468 27.4344 27.3019 28.1896C28.0572 28.9449 29.2811 28.9447 30.0366 28.1896L42.4477 15.7783L57.2344 30.565C57.6121 30.9427 58.1069 31.1314 58.6017 31.1314C59.0965 31.1314 59.5913 30.9427 59.9689 30.565L83.9321 6.60186V8.31444C83.9321 9.38236 84.798 10.248 85.8657 10.248C86.9334 10.248 87.7993 9.38236 87.7993 8.31444V1.93359C87.7993 0.865668 86.9334 0 85.8657 0Z" fill="#19193A"/>
<path d="M25.1559 30.3358C24.7965 29.9762 24.2976 29.7693 23.7891 29.7693C23.2805 29.7693 22.7817 29.9762 22.422 30.3358C22.0624 30.6955 21.8555 31.1943 21.8555 31.7029C21.8555 32.2114 22.0622 32.7103 22.422 33.0699C22.7819 33.4296 23.2805 33.6365 23.7891 33.6365C24.2976 33.6365 24.7965 33.4296 25.1559 33.0699C25.5156 32.7103 25.7226 32.2114 25.7226 31.7029C25.7226 31.1924 25.5158 30.6955 25.1559 30.3358Z" fill="#19193A"/>
</svg>
