<svg width="100" height="100" viewBox="0 0 100 100" fill="none" xmlns="http://www.w3.org/2000/svg">
<path d="M69.3359 0H30.4688C19.4838 0 10.5469 8.93691 10.5469 19.9219C10.5469 30.2479 18.4441 38.7641 28.5156 39.7488V46.6797C28.5156 47.4695 28.9916 48.1818 29.7213 48.4842C30.4512 48.7865 31.2912 48.6195 31.8498 48.0609L40.0668 39.8438H59.9332L68.1502 48.0607C68.5238 48.4344 69.0232 48.6328 69.5316 48.6328C69.7832 48.6328 70.0371 48.584 70.2787 48.484C71.0086 48.1816 71.4844 47.4695 71.4844 46.6795V39.7281C76.0287 39.2434 80.2365 37.226 83.4936 33.9367C87.2107 30.1828 89.2578 25.2055 89.2578 19.9219C89.2578 8.93691 80.3209 0 69.3359 0ZM69.5105 35.9352C68.44 35.9465 67.5781 36.8176 67.5781 37.8881V41.9645L62.1232 36.5096C61.757 36.1434 61.2602 35.9375 60.7422 35.9375H39.2578C38.7398 35.9375 38.243 36.1434 37.8768 36.5096L32.4219 41.9645V37.8906C32.4219 36.8119 31.5475 35.9375 30.4688 35.9375C21.6377 35.9375 14.4531 28.7529 14.4531 19.9219C14.4531 11.0908 21.6377 3.90625 30.4688 3.90625H69.3359C78.167 3.90625 85.3516 11.0908 85.3516 19.9219C85.3516 28.6584 78.2453 35.842 69.5105 35.9352Z" fill="#19193A"/>
<path d="M63.2952 10.533C62.5325 9.77012 61.2958 9.77012 60.5331 10.533L59.1228 11.9434C56.9017 9.41387 53.6478 7.8125 50.0249 7.8125C43.3478 7.8125 37.9155 13.2447 37.9155 19.9219C37.9155 26.599 43.3478 32.0312 50.0249 32.0312C56.7021 32.0312 62.1343 26.599 62.1343 19.9219C62.1343 18.3061 61.8138 16.7643 61.2368 15.3537L63.2952 13.2953C64.0579 12.5326 64.0579 11.2959 63.2952 10.533ZM50.0249 28.125C45.5017 28.125 41.8218 24.4451 41.8218 19.9219C41.8218 15.3986 45.5017 11.7188 50.0249 11.7188C52.5708 11.7188 54.8497 12.8848 56.3554 14.7107L51.6603 19.4059L49.6233 17.3689C48.8606 16.6062 47.6239 16.6062 46.861 17.3689C46.0983 18.1316 46.0983 19.3684 46.861 20.1312L50.279 23.5492C50.6605 23.9307 51.1603 24.1213 51.6601 24.1213C52.1599 24.1213 52.6599 23.9307 53.0411 23.5492L58.1001 18.4902C58.1827 18.9555 58.228 19.4334 58.228 19.9219C58.228 24.4451 54.5481 28.125 50.0249 28.125Z" fill="#19193A"/>
<path d="M27.7248 66.0274C29.148 64.2888 30.0037 62.0683 30.0037 59.6513V56.1907C30.0037 50.6315 25.4811 46.1089 19.9219 46.1089C14.3627 46.1089 9.84004 50.6315 9.84004 56.1907V59.6513C9.84004 62.0683 10.6957 64.2888 12.1189 66.0274C5.25234 67.1712 0 73.1507 0 80.337V98.0468C0 99.1255 0.874414 99.9999 1.95312 99.9999H37.8906C38.9693 99.9999 39.8438 99.1255 39.8438 98.0468V80.337C39.8438 73.1507 34.5914 67.1712 27.7248 66.0274ZM13.7463 56.1907C13.7463 52.7854 16.5166 50.0151 19.9219 50.0151C23.3271 50.0151 26.0975 52.7854 26.0975 56.1907V59.6513C26.0975 63.0565 23.3271 65.8269 19.9219 65.8269C16.5166 65.8269 13.7463 63.0565 13.7463 59.6513V56.1907ZM35.9375 96.0937H3.90625V80.337C3.90625 74.4901 8.66309 69.7333 14.51 69.7333H17.9688V74.6616C17.9688 75.7403 18.8432 76.6147 19.9219 76.6147C21.0006 76.6147 21.875 75.7403 21.875 74.6616V69.7333H25.3338C31.1807 69.7333 35.9375 74.4901 35.9375 80.337V96.0937Z" fill="#19193A"/>
<path d="M87.8811 66.0274C89.3043 64.2888 90.16 62.0683 90.16 59.6513V56.1907C90.16 50.6315 85.6373 46.1089 80.0781 46.1089C74.5189 46.1089 69.9963 50.6315 69.9963 56.1907V59.6513C69.9963 62.0683 70.852 64.2888 72.2752 66.0274C65.4086 67.1712 60.1562 73.1507 60.1562 80.337V98.0468C60.1562 99.1255 61.0307 99.9999 62.1094 99.9999H98.0469C99.1256 99.9999 100 99.1255 100 98.0468V80.337C100 73.1507 94.7477 67.1712 87.8811 66.0274ZM73.9025 56.1907C73.9025 52.7854 76.6729 50.0151 80.0781 50.0151C83.4834 50.0151 86.2537 52.7854 86.2537 56.1907V59.6513C86.2537 63.0565 83.4834 65.8269 80.0781 65.8269C76.6729 65.8269 73.9025 63.0565 73.9025 59.6513V56.1907ZM96.0938 96.0937H64.0625V80.337C64.0625 74.4901 68.8193 69.7333 74.6662 69.7333H78.125V74.6616C78.125 75.7403 78.9994 76.6147 80.0781 76.6147C81.1568 76.6147 82.0312 75.7403 82.0312 74.6616V69.7333H85.49C91.3369 69.7333 96.0938 74.4901 96.0938 80.337V96.0937Z" fill="#19193A"/>
<path d="M81.459 80.3594C81.0957 79.9961 80.5918 79.7891 80.0781 79.7891C79.5645 79.7891 79.0605 79.9961 78.6973 80.3594C78.334 80.7227 78.125 81.2266 78.125 81.7402C78.125 82.2559 78.334 82.7578 78.6973 83.1231C79.0605 83.4863 79.5645 83.6934 80.0781 83.6934C80.5918 83.6934 81.0957 83.4863 81.459 83.1231C81.8223 82.7578 82.0312 82.2559 82.0312 81.7402C82.0312 81.2266 81.8223 80.7246 81.459 80.3594Z" fill="#19193A"/>
<path d="M21.3027 80.3594C20.9395 79.9961 20.4355 79.7891 19.9219 79.7891C19.4082 79.7891 18.9043 79.9961 18.541 80.3594C18.1777 80.7227 17.9688 81.2266 17.9688 81.7402C17.9688 82.2559 18.1777 82.7578 18.541 83.1231C18.9043 83.4863 19.4082 83.6934 19.9219 83.6934C20.4355 83.6934 20.9395 83.4863 21.3027 83.1231C21.666 82.7578 21.875 82.2559 21.875 81.7402C21.875 81.2266 21.666 80.7246 21.3027 80.3594Z" fill="#19193A"/>
</svg>
