<svg width="110" height="110" viewBox="0 0 110 110" fill="none" xmlns="http://www.w3.org/2000/svg">
<path d="M66.4137 34.1018C65.4458 33.4154 64.1048 33.6427 63.4182 34.6105L63.3765 34.6692C62.6898 35.6368 62.9176 36.9779 63.8852 37.6645C64.2627 37.9322 64.6967 38.0611 65.1268 38.0611C65.7995 38.0611 66.4618 37.7462 66.8808 37.1558L66.9225 37.0971C67.6091 36.1295 67.3814 34.7884 66.4137 34.1018Z" fill="#19193A"/>
<path d="M61.5192 40.1905C60.7668 39.2729 59.4131 39.1395 58.4957 39.8921C55.5109 42.3405 52.1192 44.0833 48.4146 45.0724C47.2682 45.3786 46.5869 46.5559 46.8931 47.7023C47.1496 48.6631 48.018 49.2971 48.9674 49.2971C49.1509 49.2971 49.3374 49.2735 49.523 49.2236C53.8235 48.0753 57.759 46.0534 61.2206 43.214C62.1382 42.4616 62.2718 41.1077 61.5192 40.1905Z" fill="#19193A"/>
<path d="M103.555 48.6557C100.001 48.6557 97.1094 51.547 97.1094 55.1008V56.1752C97.1094 65.1851 90.5491 72.6868 81.9554 74.1669C83.0777 72.5115 83.7343 70.5158 83.7343 68.3695V66.8772C83.7343 61.1667 79.0883 56.5209 73.3777 56.5209C67.6672 56.5209 63.0214 61.1667 63.0214 66.8772V68.3695C63.0214 70.4612 63.6466 72.4086 64.7172 74.0386C56.4609 72.2885 50.2459 64.9451 50.2459 56.1752V55.1008C50.2459 51.547 47.3546 48.6557 43.8006 48.6557C40.2467 48.6557 37.3553 51.547 37.3553 55.1008V56.1752C37.3553 60.5359 38.2426 64.753 39.9545 68.6492H25.7282H25.3359V47.0128C25.3359 46.0537 24.7004 45.2106 23.7783 44.9472C12.308 41.6668 4.29688 31.0469 4.29688 19.1211V18.0469C4.29688 16.8622 5.26066 15.8984 6.44531 15.8984C7.62996 15.8984 8.59375 16.8622 8.59375 18.0469V19.1211C8.59375 31.5599 18.7135 41.6797 31.1523 41.6797H41.4921C53.9309 41.6797 64.0507 31.5599 64.0507 19.1211V18.0469C64.0507 16.8622 65.0145 15.8984 66.1992 15.8984C67.3838 15.8984 68.3476 16.8622 68.3476 18.0469V19.1211C68.3476 22.4235 67.7527 25.6493 66.5792 28.7085C66.1543 29.8162 66.7079 31.0589 67.8159 31.4838C68.9232 31.909 70.1663 31.3549 70.5912 30.2472C71.9538 26.695 72.6445 22.9515 72.6445 19.1211V18.0469C72.6445 14.4929 69.7531 11.6016 66.1992 11.6016C62.6452 11.6016 59.7538 14.4929 59.7538 18.0469V19.1211C59.7538 28.1308 53.1936 35.6325 44.6001 37.1128C45.7224 35.4574 46.3787 33.4619 46.3787 31.3158V29.8235C46.3787 24.113 41.7328 19.467 36.0222 19.467C30.3117 19.467 25.6659 24.113 25.6659 29.8235V31.3158C25.6659 33.4073 26.2911 35.3547 27.3616 36.9845C19.1054 35.2344 12.8906 27.891 12.8906 19.1211V18.0469C12.8906 14.4929 9.99926 11.6016 6.44531 11.6016C2.89137 11.6016 0 14.4929 0 18.0469V19.1211C0 26.0189 2.21762 32.5591 6.41287 38.0344C10.1391 42.8974 15.2879 46.6013 21.0392 48.5871V70.7975C21.0392 71.9838 22.0011 72.9459 23.1877 72.9459H23.58V107.852C23.58 109.038 24.5418 110 25.7284 110C26.915 110 27.8768 109.038 27.8768 107.852V72.9459H42.2628C42.7324 73.6762 43.2341 74.3909 43.7684 75.0883C43.9106 75.2739 44.0587 75.4544 44.205 75.6366V107.852C44.205 109.038 45.1668 110 46.3534 110C47.54 110 48.5018 109.038 48.5018 107.852V80.0271C51.4291 82.4804 54.7938 84.3975 58.3947 85.641V107.852C58.3947 109.038 59.3566 110 60.5432 110C61.7298 110 62.6916 109.038 62.6916 107.852V84.0666C62.6916 83.1076 62.0561 82.2645 61.134 82.0011C49.6635 78.7207 41.6524 68.101 41.6524 56.1752V55.1008C41.6524 53.9161 42.6162 52.9525 43.8008 52.9525C44.9855 52.9525 45.9493 53.9161 45.9493 55.1008V56.1752C45.9493 68.614 56.0691 78.7338 68.5079 78.7338H78.8477C91.2865 78.7338 101.406 68.614 101.406 56.1752V55.1008C101.406 53.9161 102.37 52.9525 103.555 52.9525C104.739 52.9525 105.703 53.9161 105.703 55.1008V56.1752C105.703 68.3212 97.5064 78.9927 85.7703 82.1264C84.8302 82.3773 84.1762 83.229 84.1762 84.202V99.759C84.1762 100.945 85.1381 101.907 86.3246 101.907C87.5112 101.907 88.4731 100.945 88.4731 99.759V85.8064C101.229 81.6623 110 69.708 110 56.1752V55.1008C110 51.547 107.109 48.6557 103.555 48.6557ZM29.9628 29.8233C29.9628 26.4819 32.681 23.7637 36.0222 23.7637C39.3635 23.7637 42.0819 26.4819 42.0819 29.8233V31.3156C42.0819 34.6569 39.3637 37.3751 36.0222 37.3751C32.681 37.3751 29.9628 34.6569 29.9628 31.3156V29.8233ZM79.4374 68.3695C79.4374 71.7108 76.7192 74.429 73.3777 74.429C70.0365 74.429 67.3183 71.7108 67.3183 68.3695V66.8772C67.3183 63.536 70.0365 60.8178 73.3777 60.8178C76.719 60.8178 79.4374 63.536 79.4374 66.8772V68.3695Z" fill="#19193A"/>
<path d="M87.8432 106.333C87.4436 105.933 86.8893 105.703 86.3242 105.703C85.7592 105.703 85.2049 105.933 84.8053 106.333C84.4057 106.732 84.1758 107.287 84.1758 107.852C84.1758 108.417 84.4057 108.971 84.8053 109.37C85.2049 109.77 85.7592 110 86.3242 110C86.8893 110 87.4436 109.77 87.8432 109.37C88.2428 108.971 88.4727 108.417 88.4727 107.852C88.4727 107.287 88.2428 106.732 87.8432 106.333Z" fill="#19193A"/>
<path d="M36.0222 80.3516C34.8356 80.3516 33.8738 81.3136 33.8738 82.5V107.852C33.8738 109.038 34.8356 110 36.0222 110C37.2088 110 38.1707 109.038 38.1707 107.852V82.5C38.1707 81.3136 37.2088 80.3516 36.0222 80.3516Z" fill="#19193A"/>
<path d="M100.117 17.6172C98.9306 17.6172 97.9688 18.5793 97.9688 19.7656V22.4361C97.9688 23.6225 98.9306 24.5846 100.117 24.5846C101.304 24.5846 102.266 23.6225 102.266 22.4361V19.7656C102.266 18.5793 101.304 17.6172 100.117 17.6172Z" fill="#19193A"/>
<path d="M100.117 30.4153C98.9306 30.4153 97.9688 31.3774 97.9688 32.5637V35.2342C97.9688 36.4206 98.9306 37.3827 100.117 37.3827C101.304 37.3827 102.266 36.4206 102.266 35.2342V32.5637C102.266 31.3774 101.304 30.4153 100.117 30.4153Z" fill="#19193A"/>
<path d="M107.851 25.3516H105.181C103.994 25.3516 103.032 26.3136 103.032 27.5C103.032 28.6864 103.994 29.6484 105.181 29.6484H107.851C109.038 29.6484 110 28.6864 110 27.5C110 26.3136 109.038 25.3516 107.851 25.3516Z" fill="#19193A"/>
<path d="M95.0533 25.3516H92.3828C91.1962 25.3516 90.2344 26.3136 90.2344 27.5C90.2344 28.6864 91.1962 29.6484 92.3828 29.6484H95.0533C96.2399 29.6484 97.2018 28.6864 97.2018 27.5C97.2018 26.3136 96.2399 25.3516 95.0533 25.3516Z" fill="#19193A"/>
<path d="M47.2383 0C46.0517 0 45.0898 0.96207 45.0898 2.14844V4.81895C45.0898 6.00531 46.0517 6.96738 47.2383 6.96738C48.4249 6.96738 49.3867 6.00531 49.3867 4.81895V2.14844C49.3867 0.96207 48.4249 0 47.2383 0Z" fill="#19193A"/>
<path d="M47.2383 12.7981C46.0517 12.7981 45.0898 13.7602 45.0898 14.9465V17.617C45.0898 18.8034 46.0517 19.7655 47.2383 19.7655C48.4249 19.7655 49.3867 18.8034 49.3867 17.617V14.9465C49.3867 13.7602 48.4249 12.7981 47.2383 12.7981Z" fill="#19193A"/>
<path d="M54.9728 7.73438H52.3022C51.1157 7.73438 50.1538 8.69645 50.1538 9.88281C50.1538 11.0692 51.1157 12.0312 52.3022 12.0312H54.9728C56.1593 12.0312 57.1212 11.0692 57.1212 9.88281C57.1212 8.69645 56.1593 7.73438 54.9728 7.73438Z" fill="#19193A"/>
<path d="M42.1744 7.73438H39.5039C38.3173 7.73438 37.3555 8.69645 37.3555 9.88281C37.3555 11.0692 38.3173 12.0312 39.5039 12.0312H42.1744C43.361 12.0312 44.3229 11.0692 44.3229 9.88281C44.3229 8.69645 43.361 7.73438 42.1744 7.73438Z" fill="#19193A"/>
</svg>
