<svg width="114" height="114" viewBox="0 0 114 114" fill="none" xmlns="http://www.w3.org/2000/svg">
<g clip-path="url(#clip0)">
<path d="M31.4109 103.367C30.997 102.953 30.4225 102.715 29.8369 102.715C29.2513 102.715 28.6769 102.953 28.2627 103.367C27.8486 103.782 27.6104 104.356 27.6104 104.942C27.6104 105.527 27.8484 106.102 28.2627 106.516C28.6771 106.93 29.2513 107.168 29.8369 107.168C30.4225 107.168 30.997 106.93 31.4109 106.516C31.825 106.102 32.0635 105.527 32.0635 104.942C32.0637 104.356 31.8252 103.782 31.4109 103.367Z" fill="#19193A"/>
<path d="M112.45 71.7259C109.71 67.4247 104.207 65.9037 99.6468 68.1884L75.7375 80.17C74.638 80.721 74.1934 82.0587 74.7445 83.158C75.2956 84.2573 76.6324 84.7019 77.7327 84.1511L101.642 72.1695C104.153 70.911 107.185 71.7487 108.694 74.1177C109.515 75.4071 109.757 76.9323 109.376 78.413C108.995 79.8934 108.046 81.1118 106.704 81.8443L74.5623 99.3874C70.5743 101.564 66.0653 102.715 61.522 102.715H38.2981C37.0686 102.715 36.0715 103.711 36.0715 104.941C36.0715 106.171 37.0686 107.168 38.2981 107.168H61.5223C66.8088 107.168 72.0561 105.829 76.6961 103.296L108.838 85.7531C111.239 84.4427 113.007 82.1719 113.689 79.5231C114.371 76.8753 113.92 74.0331 112.45 71.7259Z" fill="#19193A"/>
<path d="M66.4382 80.4468L56.5721 72.6307C51.4837 68.5995 45.1066 66.3796 38.6153 66.3796H21.5687V66.2456C21.5687 65.0159 20.5717 64.019 19.3421 64.019H2.22656C0.997055 64.019 0 65.0159 0 66.2456C0 67.4753 0.997055 68.4722 2.22656 68.4722H17.1151V105.095H2.22656C0.997055 105.095 0 106.092 0 107.322C0 108.552 0.997055 109.548 2.22656 109.548H19.3417C20.5712 109.548 21.5683 108.552 21.5683 107.322V70.8328H38.6148C44.1066 70.8328 49.502 72.7109 53.8064 76.1211L63.6723 83.9372C64.8718 84.8873 65.4589 86.3588 65.2436 87.874C65.0279 89.3889 64.0533 90.6383 62.6368 91.2163C61.3302 91.7489 59.8489 91.6013 58.6733 90.8208L46.0691 82.4501C45.0451 81.7696 43.6627 82.0486 42.9827 83.0731C42.3022 84.0975 42.5812 85.4793 43.6057 86.1595L56.2098 94.5303C57.6602 95.4933 59.3377 95.9856 61.0279 95.9856C62.14 95.9856 63.258 95.7723 64.3185 95.3394C67.2175 94.1571 69.2116 91.6006 69.6527 88.5012C70.094 85.4018 68.8923 82.3909 66.4382 80.4468Z" fill="#19193A"/>
<path d="M11.382 75.5875C10.5495 74.6828 9.14119 74.624 8.23587 75.4568L8.21539 75.4755C7.31074 76.3082 7.25195 77.7167 8.08469 78.6216C8.52377 79.0988 9.12271 79.3406 9.72366 79.3406C10.2627 79.3403 10.8031 79.146 11.2308 78.7523L11.2513 78.7336C12.156 77.9009 12.2147 76.4923 11.382 75.5875Z" fill="#19193A"/>
<path d="M99.8792 21.3348C100.877 19.8554 101.46 18.0746 101.46 16.1598V13.7291C101.46 8.61331 97.2984 4.45142 92.1826 4.45142C87.0667 4.45142 82.905 8.61331 82.905 13.7291V16.1596C82.905 18.0742 83.4881 19.8554 84.4861 21.3345C81.2181 22.1029 78.4165 24.0933 76.5962 26.7992C74.776 24.0935 71.9743 22.1029 68.7064 21.3345C69.7044 19.8552 70.2875 18.0744 70.2875 16.1596V13.7291C70.2875 8.61331 66.1256 4.45142 61.0099 4.45142C55.8939 4.45142 51.7322 8.61331 51.7322 13.7291V16.1596C51.7322 18.0742 52.3154 19.8554 53.3133 21.3345C50.0454 22.1029 47.2437 24.0933 45.4235 26.7992C43.6033 24.0935 40.8016 22.1029 37.5337 21.3345C38.5316 19.8552 39.1147 18.0744 39.1147 16.1596V13.7291C39.1147 8.61331 34.9528 4.45142 29.8371 4.45142C24.7213 4.45142 20.5592 8.61353 20.5592 13.7291V16.1596C20.5592 18.0742 21.1424 19.8554 22.1403 21.3345C16.3492 22.6961 12.0239 27.902 12.0239 34.1025V52.5467C12.0239 53.7767 13.021 54.7735 14.2505 54.7735H107.769C108.999 54.7735 109.996 53.7767 109.996 52.5469V34.1028C109.996 27.9022 105.67 22.6965 99.8792 21.3348ZM25.0124 13.7291C25.0124 11.069 27.1766 8.90454 29.8369 8.90454C32.4969 8.90454 34.6614 11.0688 34.6614 13.7291V16.1596C34.6614 18.8196 32.4972 20.9841 29.8369 20.9841C27.1768 20.9841 25.0124 18.8199 25.0124 16.1596V13.7291ZM43.1967 50.3199H16.4771V34.1025C16.4771 29.3243 20.3644 25.4372 25.1424 25.4372H27.6101V33.6608C27.6101 34.8905 28.6071 35.8874 29.8367 35.8874C31.0662 35.8874 32.0632 34.8905 32.0632 33.6608V25.4372H34.5309C39.3091 25.4372 43.1962 29.3243 43.1962 34.1025V50.3199H43.1967ZM56.1853 13.7291C56.1853 11.069 58.3496 8.90454 61.0099 8.90454C63.6702 8.90454 65.8344 11.0688 65.8344 13.7291V16.1596C65.8344 18.8196 63.6702 20.9841 61.0099 20.9841C58.3498 20.9841 56.1853 18.8199 56.1853 16.1596V13.7291ZM74.3695 50.3199H47.65V34.1025C47.65 29.3243 51.5372 25.4372 56.3154 25.4372H58.7831V33.6608C58.7831 34.8905 59.7801 35.8874 61.0096 35.8874C62.2391 35.8874 63.2362 34.8905 63.2362 33.6608V25.4372H65.7039C70.4821 25.4372 74.3692 29.3243 74.3692 34.1025V50.3199H74.3695ZM87.3581 13.7291C87.3581 11.069 89.5223 8.90454 92.1826 8.90454C94.8427 8.90454 97.0071 11.0688 97.0071 13.7291V16.1596C97.0071 18.8196 94.8429 20.9841 92.1826 20.9841C89.5225 20.9841 87.3581 18.8199 87.3581 16.1596V13.7291ZM105.542 50.3199H78.8228V34.1025C78.8228 29.3243 82.7102 25.4372 87.4881 25.4372H89.9558V33.6608C89.9558 34.8905 90.9529 35.8874 92.1824 35.8874C93.4119 35.8874 94.409 34.8905 94.409 33.6608V25.4372H96.8767C101.655 25.4372 105.542 29.3243 105.542 34.1025V50.3199H105.542Z" fill="#19193A"/>
</g>
<defs>
<clipPath id="clip0">
<rect width="114" height="114" fill="white"/>
</clipPath>
</defs>
</svg>
