<svg width="99" height="108" viewBox="0 0 99 108" fill="none" xmlns="http://www.w3.org/2000/svg">
<path d="M1.94519 107.493C3.01949 107.493 3.89038 106.542 3.89038 105.368C3.89038 104.195 3.01949 103.244 1.94519 103.244C0.870892 103.244 0 104.195 0 105.368C0 106.542 0.870892 107.493 1.94519 107.493Z" fill="#19193A"/>
<path d="M51.6281 53.6089C52.7003 53.6089 53.5695 52.6596 53.5695 51.4886C53.5695 50.3177 52.7003 49.3684 51.6281 49.3684C50.5559 49.3684 49.6868 50.3177 49.6868 51.4886C49.6868 52.6596 50.5559 53.6089 51.6281 53.6089Z" fill="#19193A"/>
<path d="M77.05 24.6109C75.4894 22.9063 73.4145 21.9678 71.2075 21.9678C69.0005 21.9678 66.9253 22.9067 65.3649 24.6109C62.1433 28.1295 62.1433 33.8546 65.3649 37.373C66.976 39.1324 69.0913 40.0117 71.2075 40.0117C73.323 40.0117 75.4393 39.1319 77.05 37.373C80.2716 33.8544 80.2716 28.1293 77.05 24.6109ZM74.3049 34.3745C72.5969 36.2396 69.8178 36.2396 68.1102 34.3745C66.4023 32.5094 66.4023 29.4743 68.1102 27.609C68.9376 26.7054 70.0374 26.2078 71.2075 26.2078C72.3775 26.2078 73.4773 26.7054 74.3047 27.609C76.0126 29.4743 76.0126 32.5094 74.3049 34.3745Z" fill="#19193A"/>
<path d="M24.2491 86.5744C23.2892 86.0524 22.124 86.4792 21.646 87.5273L19.3338 92.5987C18.3284 94.8036 16.3062 96.278 14.0559 96.4461L11.3666 96.6472C10.912 96.6803 10.6131 96.4331 10.4748 96.2821C10.3366 96.1311 10.1096 95.804 10.1405 95.3079L10.3246 92.371C10.4787 89.9136 11.8287 87.7049 13.8474 86.6067L18.4908 84.0815C19.4506 83.5594 19.8412 82.2867 19.3632 81.2386C18.8854 80.1905 17.72 79.7637 16.7602 80.2858L12.1168 82.811C8.86993 84.5769 6.69888 88.1289 6.45099 92.0813L6.26691 95.0182C6.16752 96.6035 6.70043 98.1569 7.7291 99.2804C8.67618 100.315 9.9572 100.89 11.2875 100.89C11.4018 100.89 11.5168 100.886 11.6317 100.877L14.321 100.676C17.9399 100.406 21.1922 98.035 22.8091 94.4885L25.1213 89.4173C25.5993 88.369 25.2087 87.0965 24.2491 86.5744Z" fill="#19193A"/>
<path d="M97.6604 1.41228C96.7495 0.4322 95.4946 -0.0803312 94.22 0.0102645L92.4124 0.136127C76.2052 1.26614 61.0374 9.81022 50.7984 23.5778L46.5437 29.2984L35.4094 28.9413C35.3905 28.9407 35.3714 28.9405 35.3526 28.9405C26.5222 28.9405 18.2203 32.6961 11.9761 39.5155L0.572111 51.9706C0.0297354 52.5629 -0.142549 53.4488 0.132796 54.2306C0.408141 55.0126 1.0791 55.5444 1.8452 55.587L25.9851 56.9415L25.0009 58.265C24.5049 58.9321 24.4264 59.86 24.8025 60.6148C25.1807 61.3742 25.5771 62.1215 25.9905 62.8568L20.2659 70.2791C19.7765 70.9137 19.6711 71.8019 19.9957 72.5521C21.2462 75.4378 22.9058 78.0307 24.9291 80.2586C27.0016 82.541 29.4249 84.4074 32.1316 85.8065C32.3961 85.9433 32.6798 86.0103 32.9617 86.0103C33.3989 86.0103 33.8324 85.8489 34.1851 85.5366C35.4183 84.444 36.8401 83.1479 38.2153 81.8948C39.1954 81.0015 40.1982 80.0878 41.1354 79.2452C41.6948 79.6128 42.2612 79.9693 42.836 80.3108C43.1268 80.4835 43.4457 80.5686 43.7634 80.5686C44.1861 80.5686 44.606 80.4183 44.9537 80.1235L46.2769 79.0021L47.5225 105.478C47.5619 106.314 48.0486 107.047 48.7645 107.348C48.9911 107.443 49.2266 107.489 49.4606 107.489C49.9662 107.489 50.4627 107.273 50.8336 106.868L62.2378 94.4129C68.482 87.5933 71.9205 78.5265 71.9205 68.8822V57.2684L76.4194 53.4556C89.9022 42.0287 98.1137 24.7978 98.9482 6.1807L98.9944 5.14888C99.0575 3.75425 98.571 2.39257 97.6604 1.41228ZM6.40463 51.5972L14.7214 42.514C20.2254 36.5028 27.5418 33.189 35.3246 33.1807L43.4621 33.4418L29.0162 52.866L6.40463 51.5972ZM35.7279 78.6391C34.7145 79.5623 33.6756 80.5093 32.7115 81.3753C30.8467 80.2723 29.1598 78.8961 27.6857 77.2725C26.2579 75.7003 25.0426 73.9101 24.0627 71.9382L28.254 66.5039C29.5212 68.3608 30.9084 70.1197 32.4069 71.7675C32.4081 71.7688 32.4093 71.7699 32.4104 71.7711C32.4108 71.7715 32.4112 71.7722 32.4116 71.7726C32.4122 71.7732 32.4128 71.7737 32.4133 71.7743C34.0749 73.6006 35.8621 75.2765 37.758 76.7921C37.0886 77.399 36.4027 78.0241 35.7279 78.6391ZM68.0386 68.8822C68.0386 77.3938 65.0038 85.3957 59.4929 91.4145L51.176 100.498L50.0155 75.8338L68.0384 60.5592V68.8822H68.0386ZM95.071 5.97353C94.2919 23.3529 86.6263 39.4384 74.0397 50.1057L43.5932 75.9094C41.0683 74.2981 38.7149 72.3956 36.5611 70.2401L46.8258 59.0294C47.5838 58.2016 47.5838 56.8589 46.8258 56.0309C46.0677 55.2029 44.8385 55.2029 44.0803 56.0309L33.8252 67.231C31.9398 64.9513 30.2699 62.4708 28.8482 59.8178L53.8121 26.2511C63.3703 13.399 77.5297 5.42278 92.6596 4.36815L94.4671 4.24229C94.704 4.22624 94.8625 4.35463 94.9356 4.43319C95.0085 4.51154 95.129 4.68196 95.1174 4.94192L95.071 5.97353Z" fill="#19193A"/>
</svg>
